<?xml version="1.0" encoding="utf-8"?>
<!-- Generator: Adobe Illustrator 22.0.1, SVG Export Plug-In . SVG Version: 6.00 Build 0)  -->
<svg version="1.1" id="Calque_1" xmlns="http://www.w3.org/2000/svg" xmlns:xlink="http://www.w3.org/1999/xlink" x="0px" y="0px"
	 viewBox="0 0 180 60.6" style="enable-background:new 0 0 180 60.6;" xml:space="preserve">
<style type="text/css">
	.st0{fill:#FFEC00;}
	.st1{fill:#1D1D1B;}
	.st2{fill:#213A8E;}
	.st3{fill:#E20613;}
	.st4{fill:#FFFFFF;}
</style>
<g>
	<g>
		<ellipse class="st0" cx="89.5" cy="30" rx="81.4" ry="27.7"/>
		<g>
			<g>
				<path class="st1" d="M85.6,36.3c-2.9,0.2-3.3-2.2-3.3-3.4c0-0.5,0-6.1,0-9.9v-3.1c0,0,1-0.1,1.7,0s1.7,0.2,1.8,1.5
					c0.3,2.5-2.9,2.2-2.9,2.2l0.9,7.1c0,0,0.9-0.2,2.3,0.1c1.2,0.3,2.1,1.1,2.3,2.6C88.2,35.4,86.6,36.2,85.6,36.3 M92.3,25
					c0.6-0.6,3.1-2.8,2.4-7c-1-6.1-6.6-6-6.6-6H73.3c0,0,0,5.1,0,11.1c0,3.9,0,8.1,0,11.7c0.1,9.4,10.1,9.9,12.2,9.8
					c1.9-0.1,11.6-0.4,12.8-10C99,25.4,92.1,25.2,92.3,25"/>
				<path class="st1" d="M99.7,12.1h8.9v21.6c0,0-0.2,2.2,2.3,2.3s2.3-2.3,2.3-2.3V12.1h8.9v24.8c0,1.2-1.5,7.6-11.3,7.6
					c-9.6,0-11.1-6.4-11.1-7.6L99.7,12.1"/>
			</g>
			<polyline class="st1" points="123.3,12 141.3,12 141.3,19 136.6,19 136.6,44.5 127.8,44.5 127.8,19 123.3,19 			"/>
			<g>
				<path class="st1" d="M55.3,35.8c-4.3,0-7.8-3.5-7.8-7.8c0-1.3,0.3-2.5,0.9-3.6v-0.1c1.3-2.5,3.9-4.2,6.9-4.2
					c1.2,0,2.3,0.3,3.3,0.7l0.1,0.1c2.6,1.2,4.4,4,4.4,7.2C62.9,32.4,59.5,35.8,55.3,35.8 M55.3,11.2c-9.2,0-16.7,7.5-16.7,16.7
					s7.5,16.7,16.7,16.7S72,37.2,71.9,27.7C71.7,18.6,64.3,11.2,55.3,11.2"/>
				<path class="st1" d="M145.6,16.9h0.7c0.2,0,0.4-0.1,0.4-0.4s-0.2-0.4-0.4-0.4h-0.7V16.9z M145.6,18.1h-0.3v-2.2h1
					c0.4,0,0.7,0.1,0.7,0.6c0,0.3-0.2,0.4-0.3,0.5c0.1,0.1,0.3,0.1,0.3,0.4v0.4c0,0.1,0,0.2,0.1,0.2l0,0h-0.4c0-0.1,0-0.5,0-0.6
					c0-0.2,0-0.4-0.4-0.4h-0.7"/>
				<path class="st1" d="M146.2,15.1c-1,0-1.8,0.8-1.8,1.8s0.8,1.8,1.8,1.8s1.8-0.8,1.8-1.8S147.2,15.1,146.2,15.1 M146.2,19
					c-1.2,0-2.1-0.9-2.1-2.1s0.9-2.1,2.1-2.1c1.2,0,2.1,0.9,2.1,2.1C148.3,18,147.4,19,146.2,19"/>
				<path class="st1" d="M89.8,3.6c41.8,0,75.8,12,75.8,26.8s-34,26.8-75.8,26.8C48,57.1,14,45.1,14,30.3C14,15.6,48,3.6,89.8,3.6
					 M90,0.8C40.9,0.8,1,14.1,1,30.3c0,16.3,39.9,29.5,89,29.5s89-13.2,89-29.5C179,14.1,139.1,0.8,90,0.8"/>
				<path class="st1" d="M46.2,48.4h0.7c0.3,0,0.6,0,0.8-0.2c0.2-0.1,0.4-0.4,0.4-0.8c0-0.4-0.2-0.6-0.4-0.8
					c-0.2-0.1-0.5-0.2-0.9-0.2h-0.7v2H46.2z M46.8,45.8c0.8,0,1.2,0.1,1.5,0.4c0.4,0.3,0.6,0.8,0.6,1.3s-0.2,1-0.6,1.3
					c-0.4,0.3-0.7,0.4-1.5,0.4h-0.7v1.9h-0.8v-5.3"/>
				<path class="st1" d="M49.6,45.8h1.5c0.8,0,1.3,0.1,1.5,0.3c0.4,0.3,0.7,0.8,0.7,1.4c0,0.4-0.1,0.7-0.3,1c-0.3,0.4-0.6,0.5-1,0.6
					l1.2,2h-0.9l-1.5-2.4H51c0.4,0,0.8,0,1.1-0.2c0.2-0.2,0.4-0.5,0.4-0.9s-0.2-0.7-0.5-0.9c-0.2-0.1-0.5-0.2-0.9-0.2h-0.7v4.6h-0.8
					"/>
			</g>
			<polyline class="st1" points="54.2,45.8 57.1,45.8 57.1,46.5 55,46.5 55,48 57.1,48 57.1,48.7 55,48.7 55,50.3 57.1,50.3 
				57.1,51.1 54.2,51.1 			"/>
			<polyline class="st1" points="58.2,51.1 58.2,45.8 59.3,45.8 61,49.9 62.6,45.8 63.8,45.8 63.8,51.1 63,51.1 63,46.6 61.2,51.1 
				60.7,51.1 58.9,46.6 58.9,51.1 			"/>
			<rect x="64.9" y="45.8" class="st1" width="0.8" height="5.3"/>
			<polyline class="st1" points="66.9,45.8 69.9,45.8 69.9,46.5 67.8,46.5 67.8,48 69.9,48 69.9,48.7 67.8,48.7 67.8,50.3 
				69.9,50.3 69.9,51.1 66.9,51.1 			"/>
			<g>
				<path class="st1" d="M70.9,45.8h1.5c0.8,0,1.3,0.1,1.5,0.3c0.4,0.3,0.7,0.8,0.7,1.4c0,0.4-0.1,0.7-0.3,1c-0.3,0.4-0.6,0.5-1,0.6
					l1.2,2h-0.9l-1.5-2.4h0.2c0.4,0,0.8,0,1.1-0.2c0.2-0.2,0.4-0.5,0.4-0.9s-0.2-0.7-0.5-0.9c-0.2-0.1-0.5-0.2-0.9-0.2h-0.7v4.6
					h-0.8"/>
			</g>
			<polyline class="st1" points="77.7,45.8 80.7,45.8 80.7,46.5 78.5,46.5 78.5,48 80.6,48 80.6,48.7 78.5,48.7 78.5,50.3 
				80.7,50.3 80.7,51.1 77.7,51.1 			"/>
			<polyline class="st1" points="85.2,49.8 85.2,45.8 86,45.8 86,51.1 85.3,51.1 82.5,47 82.5,51.1 81.7,51.1 81.7,45.8 82.5,45.8 
							"/>
			<g>
				<path class="st1" d="M89.9,48.4h0.7c0.3,0,0.6,0,0.8-0.2c0.2-0.1,0.4-0.4,0.4-0.8c0-0.4-0.2-0.6-0.4-0.8
					c-0.2-0.1-0.5-0.2-0.8-0.2h-0.7V48.4z M90.5,45.8c0.8,0,1.2,0.1,1.5,0.4c0.4,0.3,0.6,0.8,0.6,1.3s-0.2,1-0.5,1.3
					c-0.4,0.3-0.7,0.4-1.4,0.4h-0.8v1.9H89v-5.3"/>
			</g>
			<path class="st1" d="M95.4,44.1l0.2,0.4l-1.3,0.7l-0.2-0.3L95.4,44.1z M93.4,45.8h3v0.7h-2.1V48h2.1v0.7h-2.1v1.6h2.1V51h-3"/>
			<polyline class="st1" points="98.4,46.5 97.2,46.5 97.2,45.8 100.5,45.8 100.5,46.5 99.2,46.5 99.2,51.1 98.4,51.1 			"/>
			<path class="st1" d="M102.6,46.7l-0.9,2.4h1.8L102.6,46.7z M101,51.1h-0.9l2.2-5.3h0.8l2.1,5.3h-0.9l-0.5-1.3h-2.3"/>
			<polyline class="st1" points="109,49.8 109,45.8 109.8,45.8 109.8,51.1 109.1,51.1 106.3,47 106.3,51.1 105.5,51.1 105.5,45.8 
				106.3,45.8 			"/>
			<g>
				<path class="st1" d="M113.6,50.4c0.4,0,0.8-0.1,0.9-0.3c-0.2-0.2-0.6-0.5-0.6-0.6c-0.4-0.3-0.8-0.4-1.3-0.4
					c-0.4,0-0.6,0.1-0.8,0.1C112.3,50.2,113.1,50.4,113.6,50.4L113.6,50.4z M113.6,46.4c-1,0-1.8,0.7-1.9,1.7c0,0.2,0,0.4,0,0.5
					c0.2-0.1,0.5-0.2,1-0.2s0.9,0.1,1.3,0.4c0.3,0.2,0.5,0.3,1,0.8c0.3-0.3,0.5-0.8,0.5-1.2C115.5,47.2,114.7,46.4,113.6,46.4
					L113.6,46.4z M116.7,51.2c-0.1,0-0.3,0-0.4,0c-0.6,0-0.9-0.3-1.2-0.4c-0.5,0.3-1,0.5-1.6,0.5c-1.7,0-2.8-1.3-2.8-2.7
					c0-1.5,1.1-2.8,2.8-2.8c1.6,0,2.8,1.3,2.8,2.7c0,1-0.4,1.5-0.7,1.8c0.3,0.2,0.5,0.3,1,0.3"/>
				<path class="st1" d="M118.2,45.8v3.3c0,0.3,0,0.6,0.2,0.9c0.2,0.2,0.4,0.4,0.8,0.4s0.7-0.2,0.8-0.4c0.2-0.3,0.2-0.6,0.2-0.9
					v-3.3h0.8v3.3c0,0.7-0.1,1.2-0.6,1.6c-0.3,0.3-0.7,0.5-1.3,0.5c-0.4,0-0.9-0.1-1.3-0.5c-0.5-0.5-0.6-1-0.6-1.6v-3.3"/>
			</g>
			<polyline class="st1" points="122.3,45.8 125.2,45.8 125.2,46.5 123.1,46.5 123.1,48 125.2,48 125.2,48.7 123.1,48.7 123.1,50.3 
				125.2,50.3 125.2,51.1 122.3,51.1 			"/>
			<rect x="127.8" y="45.6" class="st2" width="5.9" height="5.4"/>
			<rect x="133.7" y="45.6" class="st3" width="2.9" height="5.4"/>
			<rect x="130.8" y="45.6" class="st4" width="3" height="5.4"/>
		</g>
	</g>
</g>
</svg>
