<?xml version="1.0" encoding="UTF-8"?>
<svg id="Calque_2" data-name="Calque 2" xmlns="http://www.w3.org/2000/svg" viewBox="0 0 301.45 146.14">
  <defs>
    <style>
      .cls-1, .cls-2 {
        fill: #fff;
      }

      .cls-2 {
        fill-rule: evenodd;
      }
    </style>
  </defs>
  <g id="Calque_1-2" data-name="Calque 1">
    <path class="cls-2" d="M264.32,142.76l7.89-33.14h29.24l-1.33,5.6h-21.24l-1.75,7.36h19.75l-1.33,5.6h-19.75l-2.14,8.98h22.01l-1.33,5.6h-30.01Zm-30.64-33.14h8l-4.27,17.96c-.68,2.85-1.02,4.7-1.02,5.54,.02,1.36,.56,2.45,1.63,3.27,1.08,.83,2.72,1.23,4.93,1.23s4.02-.39,5.34-1.16c1.33-.78,2.23-1.73,2.73-2.86,.5-1.13,1.07-3.01,1.69-5.63l4.37-18.35h8l-4.15,17.43c-.95,3.98-1.83,6.8-2.65,8.44-.82,1.64-1.94,3.03-3.37,4.17-1.42,1.13-3.18,2.03-5.27,2.7-2.1,.67-4.7,1.01-7.82,1.01-3.76,0-6.52-.36-8.29-1.1-1.77-.73-3.08-1.68-3.93-2.85s-1.3-2.39-1.35-3.68c-.07-1.9,.34-4.71,1.22-8.42l4.21-17.7Zm-23.55,25.18c1.26-1.02,2.32-2.24,3.17-3.67,.85-1.44,1.5-3.08,1.94-4.94,.91-3.83,.59-6.7-.97-8.59-1.56-1.89-3.97-2.84-7.21-2.84s-6.12,.95-8.59,2.85c-2.48,1.91-4.17,4.77-5.08,8.59-.92,3.88-.6,6.79,.96,8.71,1.56,1.93,3.89,2.89,6.98,2.89,1.16,0,2.28-.16,3.38-.48-1.4-.89-2.88-1.57-4.43-2.07l3.16-3.89c2.43,.76,4.66,1.9,6.69,3.43Zm5.5,3.76c1.67,1.18,3.57,2.11,5.7,2.81l-4.07,4.77c-1.12-.3-2.2-.72-3.22-1.25-.22-.11-1.75-1.09-4.59-2.96-2.81,.95-5.79,1.43-8.94,1.43-6.07,0-10.47-1.5-13.2-4.51-2.72-3.01-3.44-7.23-2.14-12.67,1.29-5.42,4.02-9.64,8.19-12.65,4.17-3.02,9.2-4.52,15.11-4.52s10.14,1.5,12.85,4.52c2.71,3.01,3.43,7.22,2.14,12.64-.68,2.86-1.76,5.38-3.23,7.56-1.11,1.66-2.64,3.27-4.6,4.82Zm-72.59,4.2l7.89-33.14h7.74l10.97,22.21,5.29-22.21h7.39l-7.89,33.14h-7.99l-10.82-21.79-5.18,21.79h-7.39Zm-15.75-13.15l-2.57-12.27-8.25,12.27h10.82Zm11.49,13.15h-8.62l-1.62-7.55h-15.84l-5.08,7.55h-8.46l23.22-33.14h8.45l7.94,33.14Zm-57.34,0l6.55-27.54h-11.7l1.33-5.6h31.34l-1.33,5.6h-11.64l-6.55,27.54h-8Zm-45.68,0l7.89-33.14h29.24l-1.33,5.6h-21.24l-1.75,7.36h19.75l-1.33,5.6h-19.75l-2.14,8.98h22.01l-1.33,5.6h-30.01Zm-21.21-27.54l-2.25,9.44h4.35c3.14,0,5.26-.18,6.4-.52,1.14-.35,2.1-.89,2.87-1.64,.77-.74,1.28-1.6,1.52-2.58,.29-1.21,.1-2.21-.55-2.99-.66-.79-1.6-1.28-2.85-1.48-.91-.15-2.8-.22-5.67-.22h-3.83ZM0,142.76l7.89-33.14h12.79c4.85,0,7.96,.16,9.35,.49,2.14,.5,3.78,1.58,4.91,3.25,1.13,1.67,1.38,3.82,.75,6.46-.48,2.04-1.33,3.74-2.54,5.13-1.21,1.39-2.58,2.48-4.12,3.27-1.54,.79-3.04,1.31-4.5,1.57-1.98,.32-4.77,.48-8.37,.48h-5.19l-2.97,12.5H0Z"/>
    <path class="cls-1" d="M219.6,.7c8.02,0,7.17,14.17,0,14.17h-46.45v24.26h62.57c7.46,0,8.21,.9,11.82,6.62l19.51,31.8c5.46,8.6,2.81,13.98-7.46,13.98H37.72c-3.86,0-6.13-.33-8.07-2.88-1.52-2-1.25-4.79,.99-8.41L73.74,7.23c1.83-3.1,4.05-5.49,7.62-6.66,2.02-.66,4.1-.74,6.02-.29,2.12,.5,4.04,1.63,5.52,3.34,1.65,1.9,2.66,4.39,2.66,7.35V44.62L118.73,7.06c1.82-2.95,3.82-5.2,7.25-6.41,1.93-.68,3.95-.84,5.86-.42,2.17,.48,4.13,1.64,5.66,3.55,1.54,1.93,2.51,4.49,2.51,7.67V61.51c0,3.91-3.17,7.09-7.09,7.09s-7.09-3.17-7.09-7.09V22.44l-25.01,40.57c-2.65,4.3-5.18,4.67-8.42,4.66h-3.8c-4.23-.01-7.21-1.24-7.21-7.62V22.1l-32.61,55.32H247.35c2.16,0,2.23-1.17,1.22-2.77l-11.86-19.7c-.99-1.41-1.94-1.64-3.71-1.64h-65.43c-5.63,0-8.59-1.84-8.59-7.46V8.82c0-4.8,1.25-8.12,6.62-8.12h54Z"/>
  </g>
</svg>